<svg width="56" height="50" viewBox="0 0 56 50" fill="none" xmlns="http://www.w3.org/2000/svg">
  <path d="M17.1015 1.30332C19.2406 0.00726363 23.7719 0 28 0C32.2281 0 36.7594 0.00726374 38.8985 1.30332L54.1903 10.203C56.3294 11.4991 56.3294 13.4843 56.3294 15.0774V34.9226C56.3294 36.5157 56.3294 38.5009 54.1903 39.797L38.8985 48.6967C36.7594 49.9927 32.2281 50 28 50C23.7719 50 19.2406 49.9927 17.1015 48.6967L1.80966 39.797C-0.32941 38.5009 -0.32941 36.5157 -0.32941 34.9226V15.0774C-0.32941 13.4843 -0.32941 11.4991 1.80966 10.203L17.1015 1.30332Z" fill="black"/>
  <path d="M37.3638 15.2387H31.4884V34.3379H37.3638V15.2387Z" fill="white"/>
  <path d="M24.2111 27.0605H24.2108C22.5582 27.0602 21.1249 25.8349 20.7633 24.2252V24.2252C20.401 22.6131 21.1615 20.9815 22.6578 20.1722V20.1722C24.1585 19.3602 26.0098 19.6741 27.1903 20.9189V20.9189C28.3767 22.1696 28.4392 24.0462 27.3426 25.364V25.364C26.5521 26.3859 25.3402 27.0607 24.2111 27.0605Z" fill="white"/>
</svg>
